<svg id="Group_39182" data-name="Group 39182" xmlns="http://www.w3.org/2000/svg" width="255.807" height="93.298" viewBox="0 0 255.807 93.298">
  <path id="Path_3208" data-name="Path 3208" d="M224.393,125.766a18.081,18.081,0,0,1-11.75-4.359,17.547,17.547,0,0,1-5.675-9.868A19.071,19.071,0,0,1,210.459,95.4a16.628,16.628,0,0,1,10.317-6.251A18.184,18.184,0,0,1,232.73,90.74c5.071,2.574,7.967,6.836,9.176,12.316a19.509,19.509,0,0,1-.9,11.487,17.907,17.907,0,0,1-16.616,11.224Zm12.218-18.527a23.566,23.566,0,0,0-.2-2.613,11.946,11.946,0,0,0-3.247-6.767,12.045,12.045,0,0,0-20.009,4.125,14.987,14.987,0,0,0-.7,7.791,12.49,12.49,0,0,0,2.857,6.485,11.66,11.66,0,0,0,7.313,4,11.427,11.427,0,0,0,10.1-3.159C235.548,114.435,236.592,111.032,236.611,107.239Z" transform="translate(-206.485 -32.475)" fill="#fff"/>
  <path id="Path_3209" data-name="Path 3209" d="M429.951,99.209c-1.277,4.661-2.526,9.166-3.754,13.671-1.073,3.92-2.145,7.85-3.189,11.779a.8.8,0,0,1-.956.7c-1.58-.049-3.169-.039-4.759-.01a.968.968,0,0,1-1.151-.819c-1.706-5.665-3.471-11.311-5.217-16.967-.127-.4-.263-.8-.488-1.5-.936,3.023-1.765,5.734-2.6,8.444-1.034,3.335-2.087,6.67-3.081,10.014a.952.952,0,0,1-1.121.829c-1.7-.049-3.393-.02-5.09-.01-.39,0-.566-.029-.7-.536-1.755-6.543-3.579-13.076-5.383-19.61-.536-1.96-1.092-3.91-1.667-5.987,1.872,0,3.7.01,5.529,0,.683,0,.556.614.644.936.566,2.106,1.063,4.222,1.57,6.348.995,4.193,1.979,8.386,3,12.725a19.215,19.215,0,0,0,1.394-4.027c1.141-3.569,2.126-7.177,3.169-10.775.439-1.5.868-3.013,1.307-4.525.127-.439.322-.731.9-.7,1.433.059,2.877.049,4.31,0a.859.859,0,0,1,.975.741q2.75,9.332,5.529,18.664c.039.137.039.293.322.3.848-3.315,1.716-6.641,2.555-9.985.761-3.013,1.472-6.036,2.233-9.059.1-.371.254-.692.809-.673C426.655,99.238,428.273,99.209,429.951,99.209Z" transform="translate(-211.071 -32.734)" fill="#fff"/>
  <path id="Path_3210" data-name="Path 3210" d="M281.779,102.955V88.24c0-1.531,0-1.531,1.58-1.531.995,0,2,.059,2.984-.02.926-.078,1.219.146,1.219,1.17-.049,9.371-.029,18.742-.029,28.113,0,2.691-.039,5.383.02,8.074.02.868-.244,1.053-1.043,1-1.063-.068-2.136-.02-3.208-.02-.331,0-.663.078-.653-.468.039-1.307-.546-2.526-.419-4.1a10.432,10.432,0,0,1-5.422,4.554c-5.617,1.911-10.882-.712-13.583-5.646a15.224,15.224,0,0,1-1.794-8.562c.361-4.7,2.253-8.669,6.426-11.126a10.405,10.405,0,0,1,13.925,3.267Zm.254,9.03a10.22,10.22,0,0,0-1.931-5.851,6.993,6.993,0,0,0-10.317-.9c-3.023,2.9-3.54,8.6-.965,12.325a7.075,7.075,0,0,0,9.6,1.853C281.029,117.591,281.9,114.958,282.033,111.984Z" transform="translate(-207.851 -32.422)" fill="#fff"/>
  <path id="Path_3211" data-name="Path 3211" d="M377.743,65.129c1.472-5.324,2.877-10.453,4.31-15.563,1.024-3.676,2.087-7.343,3.13-11.019.361-1.268.722-2.535,1.073-3.813.166-.624.361-1.092,1.2-.975a18.488,18.488,0,0,0,2.555.029c-1.346,4.544-2.672,8.981-3.978,13.418q-2.779,9.39-5.529,18.781c-.166.585-.361,1.151-.5,1.755-.39,1.716-.439,1.706-2.233,1.706a4.5,4.5,0,0,0-.887.01c-.751.137-1.053-.185-1.277-.887-2.4-7.538-4.846-15.075-7.284-22.6-.761-2.34-1.531-4.681-2.37-7.265-.585,1.648-1.121,3.1-1.6,4.564q-3.35,10.326-6.66,20.672c-.517,1.6-1.043,3.189-1.531,4.788-.156.517-.38.819-.975.731a6.719,6.719,0,0,0-.887-.01c-2,0-2.009,0-2.535-1.9-1.492-5.47-3.189-10.882-4.817-16.314-1.726-5.773-3.413-11.555-5.149-17.445,1.034,0,2.048.02,3.062-.01.536-.02.566.41.653.712q2.56,8.791,5.071,17.581c1.151,4.047,2.262,8.113,3.4,12.16a2.832,2.832,0,0,0,.322.527c2.253-6.992,4.476-13.944,6.719-20.877,1-3.12,2.077-6.221,3.042-9.361.185-.595.419-.731.965-.741,2.526-.068,2.516-.078,3.423,2.7q2.4,7.372,4.807,14.744C374.739,55.8,376.2,60.37,377.743,65.129Z" transform="translate(-209.852 -31.105)" fill="#fff"/>
  <path id="Path_3212" data-name="Path 3212" d="M360.59,112.3c.176-5.5,2.35-9.907,7.421-12.355a13.218,13.218,0,0,1,13.876,1.082,12.789,12.789,0,0,1,5.295,9.127,14.172,14.172,0,0,1-1.219,8.415,12.38,12.38,0,0,1-10.317,7.245,13.455,13.455,0,0,1-8.679-1.765,12.475,12.475,0,0,1-5.929-8.2A14.056,14.056,0,0,1,360.59,112.3Zm21.053.458c0-3.335-.9-5.812-3.257-7.616a7.305,7.305,0,0,0-10.834,2.272,9.771,9.771,0,0,0-.985,7.118,7.612,7.612,0,0,0,9.576,6.016A8.123,8.123,0,0,0,381.643,112.755Z" transform="translate(-210.319 -32.716)" fill="#fff"/>
  <path id="Path_3213" data-name="Path 3213" d="M316.9,118.3c0,1.541-.01,3,.01,4.466a.882.882,0,0,1-.517.848,16.642,16.642,0,0,1-6.65,2.223,15.327,15.327,0,0,1-8.9-1.453,11.545,11.545,0,0,1-6.28-8.269,15.063,15.063,0,0,1,2.457-12.716,12,12,0,0,1,7.8-4.632,11.682,11.682,0,0,1,6.953.858,9.817,9.817,0,0,1,4.476,3.891c1.892,2.925,2.233,6.182,2.2,9.537-.01.79-.38,1.014-1.151,1.014-5.568-.029-11.136,0-16.7-.029-.839,0-1,.078-.77,1a8.364,8.364,0,0,0,6.728,6.114C310.443,121.846,313.71,120.461,316.9,118.3Zm-10.551-8.035h4.963c1.862,0,1.862,0,1.6-1.765a6.025,6.025,0,0,0-6.348-5.295c-3.842.254-6.134,3.189-6.923,6.5-.127.546.224.566.644.566C302.3,110.262,304.329,110.262,306.347,110.262Z" transform="translate(-208.665 -32.718)" fill="#fff"/>
  <path id="Path_3214" data-name="Path 3214" d="M435.949,112.25c0-4.056.02-8.123-.019-12.179-.01-.731.2-.956.917-.9a14.177,14.177,0,0,0,2.652-.01c.829-.1.985.41,1.082.975.127.712.176,1.433.234,2.155.02.244.049.478.263.556.244.088.39-.176.507-.341a8.886,8.886,0,0,1,8.181-3.959c4.193.2,7.83,2.613,8.562,7.557a52.956,52.956,0,0,1,.176,7.031c.058,3.764,0,7.528.029,11.292.01.722-.185.936-.907.907-1.326-.059-2.652-.068-3.978,0-.751.039-.9-.215-.9-.917.029-5.09.107-10.19-.019-15.28-.088-3.452-1.482-4.8-4.271-5.266a5.549,5.549,0,0,0-6.377,3.618,7.826,7.826,0,0,0-.39,2.214c.01,4.876-.02,9.741.029,14.617.01.819-.166,1.082-1.014,1.034a34.176,34.176,0,0,0-3.871,0c-.731.039-.907-.2-.907-.917C435.969,120.373,435.949,116.316,435.949,112.25Z" transform="translate(-212.194 -32.718)" fill="#fff"/>
  <path id="Path_3215" data-name="Path 3215" d="M333.626,48.466c.634-1.209.2-2.448.5-3.6.166-.673.263-.887.965-.878,1.755.029,1.755,0,1.755,1.706,0,7.567.068,15.124-.029,22.691a11.7,11.7,0,0,1-3.852,9.059,11.847,11.847,0,0,1-5.87,2.682,15.956,15.956,0,0,1-9.127-1.385,17.245,17.245,0,0,1-2.311-1.355c-.293-.176-.283-.478-.273-.78.01-1.073,0-2.135,0-3.345.946.692,1.755,1.424,2.682,2.009a12.409,12.409,0,0,0,7.713,1.94,8.408,8.408,0,0,0,7.557-6.719c.341-2.009.059-3.988.234-6.27a12.255,12.255,0,0,1-5.724,4.466c-5.841,2.048-12.13-1.726-14.032-6.9a15.176,15.176,0,0,1-1.082-5.9c.254-5.753,3.881-11.087,10.092-12.111A10.912,10.912,0,0,1,333.626,48.466Zm-17.591,7.986a9.278,9.278,0,0,0,.663,3.832,8.548,8.548,0,0,0,10.716,5.451c3.627-1.219,5.363-3.93,6.124-7.528,1.014-4.827-1.745-10.561-7.2-11.389a8.335,8.335,0,0,0-7.586,2.389A9.519,9.519,0,0,0,316.035,56.453Z" transform="translate(-209.128 -31.351)" fill="#fff"/>
  <path id="Path_3216" data-name="Path 3216" d="M344.663,109.839c0-4.651-.039-9.293.029-13.944.02-1.034-.3-1.18-1.219-1.17-2.877.059-5.753-.01-8.62.039-.77.01-1.121-.107-1.053-.995a32.97,32.97,0,0,0,.01-3.54c-.02-.595.117-.819.77-.819q12.93.029,25.87,0c.585,0,.858.088.819.761a37.312,37.312,0,0,0,0,3.764c.039.751-.273.819-.887.819-2.945-.029-5.9.029-8.844-.039-.9-.02-1.16.166-1.151,1.121.039,9.225.029,18.439.029,27.664,0,1.58,0,1.58-1.531,1.58-1.034,0-2.067-.059-3.091.019-.887.068-1.17-.156-1.16-1.112C344.692,119.288,344.663,114.568,344.663,109.839Z" transform="translate(-209.653 -32.49)" fill="#fff"/>
  <path id="Path_3217" data-name="Path 3217" d="M414.427,48.748c.6-1.277.166-2.691.517-4.027.137-.517.176-.722.761-.731,1.94-.029,1.94-.059,1.94,1.853,0,7.606-.01,15.2.01,22.808,0,.741-.049,1.112-.975,1.073-1.843-.078-1.862-.01-1.911-2.048a7.91,7.91,0,0,0-.332-2.769,11.267,11.267,0,0,1-5.578,4.573,10.5,10.5,0,0,1-10.014-1.472c-3.091-2.165-4.583-5.3-5.129-9a14.6,14.6,0,0,1,1.55-9.2,11.18,11.18,0,0,1,8.288-6.055c3.588-.663,6.572.536,9.215,2.818A14.654,14.654,0,0,1,414.427,48.748Zm-17.64,7.928c.078,3.208.878,5.89,3.14,8.074a8.317,8.317,0,0,0,12.608-1.336,11.393,11.393,0,0,0,.41-12.52,8.269,8.269,0,0,0-10.921-3.374C398.211,49.46,396.914,52.824,396.787,56.676Z" transform="translate(-211.139 -31.35)" fill="#fff"/>
  <path id="Path_3218" data-name="Path 3218" d="M249.389,105.754c0-6.016.02-12.033-.02-18.04-.01-.839.2-1.063,1.024-1.014a34.179,34.179,0,0,0,3.871,0c.751-.039.9.224.9.926-.029,6.055-.02,12.1-.02,18.157,0,6.085-.02,12.179.02,18.264.01.839-.2,1.063-1.024,1.014a34.175,34.175,0,0,0-3.871,0c-.751.039-.9-.224-.9-.926C249.4,118,249.389,111.877,249.389,105.754Z" transform="translate(-207.552 -32.423)" fill="#fff"/>
  <path id="Path_3219" data-name="Path 3219" d="M288.189,47.919a9.129,9.129,0,0,1,8.61-4.33c4.29.273,7.742,2.672,8.4,7.391a16.21,16.21,0,0,1,.185,2.165c.01,5.207-.02,10.4.02,15.612.01.79-.215.965-.975.956-2.36-.039-2.36,0-2.36-2.321V53.331a7.854,7.854,0,0,0-1.2-4.183,5.619,5.619,0,0,0-4.525-2.477,7.077,7.077,0,0,0-7.986,6.855c-.01,5.061-.029,10.112.019,15.173.01.839-.2,1.034-1.034,1.024-2.311-.049-2.311-.01-2.311-2.37,0-7.382.02-14.763-.02-22.145,0-.9.107-1.307,1.16-1.229,1.56.107,1.609.02,1.716,1.56A10.686,10.686,0,0,0,288.189,47.919Z" transform="translate(-208.439 -31.35)" fill="#fff"/>
  <path id="Path_3220" data-name="Path 3220" d="M450.249,63.16a11.513,11.513,0,0,0,5.9,3.491,8.992,8.992,0,0,0,7.079-.692,3.658,3.658,0,0,0-.3-6.524c-2.1-1.121-4.427-1.56-6.631-2.37-1.989-.741-4.017-1.5-5.139-3.471a6.526,6.526,0,0,1,2.974-8.718c4.212-2.077,8.308-1.6,12.335.595a1.043,1.043,0,0,1,.6,1.121c-.02.848-.01,1.7-.01,2.672a17.648,17.648,0,0,0-3.959-2.018,10.48,10.48,0,0,0-6.582-.137c-2.223.761-3.423,2.935-2.487,4.846.673,1.365,2.057,1.94,3.423,2.467,2.418.946,5.012,1.4,7.323,2.643,2.7,1.453,3.735,3.189,3.559,6.075a6.379,6.379,0,0,1-4.232,5.929,13.446,13.446,0,0,1-12.91-1.336,1.733,1.733,0,0,1-.975-1.755C450.3,65.139,450.249,64.281,450.249,63.16Z" transform="translate(-212.55 -31.349)" fill="#fff"/>
  <path id="Path_3221" data-name="Path 3221" d="M209.22,51.624c0-5.607.02-11.214-.02-16.821-.01-.809.166-1.053,1.014-1.034,2.331.059,2.331.01,2.331,2.35,0,9.7.01,19.4-.02,29.107,0,.907.185,1.16,1.121,1.151,4.72-.058,9.439-.01,14.159-.039.712,0,.926.166.917.9-.029,2.214.01,2.214-2.243,2.214-5.422,0-10.834-.02-16.255.02-.829.01-1.024-.2-1.024-1.024C209.239,62.838,209.22,57.231,209.22,51.624Z" transform="translate(-206.552 -31.106)" fill="#fff"/>
  <path id="Path_3222" data-name="Path 3222" d="M255.4,66.094c.878-2.487,1.687-4.759,2.486-7.031q2.516-7.211,5-14.432c.146-.439.254-.663.78-.634.907.059,1.833.02,2.818.02-1.112,3.042-2.2,6.016-3.286,9q-2.9,8.045-5.763,16.089a.888.888,0,0,1-1.2.585c-.985-.244-2.428.741-2.945-.585-1.736-4.476-3.286-9.039-4.924-13.554q-1.945-5.368-3.939-10.736c-.088-.244.049-.527-.263-.7.156-.059.224-.107.273-.1,1.112.254,2.526-.683,3.325.488A14.376,14.376,0,0,1,249,47.791c1.95,5.47,3.822,10.96,5.724,16.45C254.926,64.777,255.121,65.314,255.4,66.094Z" transform="translate(-207.422 -31.358)" fill="#fff"/>
  <path id="Path_3223" data-name="Path 3223" d="M430.645,50.211c0,6.055-.019,12.1.02,18.157,0,.8-.156,1.063-1,1.043-2.331-.059-2.331-.01-2.331-2.35q0-17.435-.02-34.87c0-.9.175-1.18,1.121-1.151,2.214.078,2.223.02,2.223,2.243Q430.64,41.752,430.645,50.211Z" transform="translate(-211.98 -31.038)" fill="#fff"/>
  <path id="Path_3224" data-name="Path 3224" d="M439.58,50.123c0-6.016.019-12.023-.02-18.04,0-.79.137-1.063,1-1.043,2.34.059,2.34.01,2.34,2.35q0,17.377.02,34.753c0,.965-.176,1.316-1.229,1.268-2.116-.1-2.116-.029-2.116-2.126Q439.58,58.7,439.58,50.123Z" transform="translate(-212.285 -31.038)" fill="#fff"/>
  <path id="Path_3225" data-name="Path 3225" d="M234.87,56.783c0-3.91.029-7.82-.019-11.731-.01-.907.263-1.082,1.1-1.063,2.243.049,2.243.01,2.243,2.214,0,7.489-.02,14.978.02,22.467.01.9-.263,1.082-1.1,1.063-2.243-.049-2.243-.01-2.243-2.213Z" transform="translate(-207.191 -31.36)" fill="#fff"/>
  <path id="Path_3226" data-name="Path 3226" d="M272.769,56.862c0-3.988.019-7.967-.019-11.955-.01-.712.156-.926.9-.917,2.438.019,2.438-.01,2.438,2.457,0,7.411-.01,14.832.019,22.242,0,.809-.166,1.053-1.014,1.034-2.321-.059-2.331-.01-2.331-2.35C272.769,63.873,272.769,60.362,272.769,56.862Z" transform="translate(-208.134 -31.36)" fill="#fff"/>
  <path id="Path_3227" data-name="Path 3227" d="M238.607,34.922a2.2,2.2,0,0,1-2.321,2.155,2.252,2.252,0,0,1-2.1-2.262,2.181,2.181,0,0,1,2.321-2.155A2.267,2.267,0,0,1,238.607,34.922Z" transform="translate(-207.174 -31.078)" fill="#fff"/>
  <path id="Path_3228" data-name="Path 3228" d="M274.274,37.087A2.208,2.208,0,0,1,272.1,34.8a2.144,2.144,0,0,1,2.233-2.126,2.209,2.209,0,0,1-.059,4.417Z" transform="translate(-208.117 -31.079)" fill="#fff"/>
</svg>
