<svg xmlns="http://www.w3.org/2000/svg" width="285.425" height="70.582" viewBox="0 0 285.425 70.582">
  <g id="Group_39184" data-name="Group 39184" transform="translate(-718.37 -199.828)">
    <path id="Path_3205" data-name="Path 3205" d="M965.016-1359.266v70.582" transform="translate(-141.553 1559.093)" fill="none" stroke="#fff" stroke-width="1" opacity="0.5"/>
    <g id="Group_39181" data-name="Group 39181" transform="translate(718.37 208.009)">
      <g id="logoMark" transform="translate(0)">
        <path id="Fill-1" d="M138.613.37l-7.538,20.57-1.367,3.455c-.352.824-1.736,3.772-2.037,4.442-2.128,4.723-4.961,3.992-4.961,3.992s1.565,3.311,3.221,6.414c2.575,5.107,7.206,8.3,13.274-4.457,1.88-3.955,4.834-11.44,4.834-11.44l3.114-8.366L152.669.37Z" transform="translate(-73.266 -0.221)" fill="#d7d6d7" fill-rule="evenodd"/>
        <path id="Fill-4" d="M0,.37l5.515,14.61,3.117,8.366s2.953,7.485,4.833,11.44c6.07,12.759,10.7,9.564,13.275,4.457,1.653-3.1,3.221-6.414,3.221-6.414s-2.833.73-4.964-3.992c-.3-.67-1.684-3.618-2.036-4.442L21.6,20.94,14.057.37Z" transform="translate(0 -0.221)" fill="#d7d6d7" fill-rule="evenodd"/>
        <path id="Fill-6" d="M53.6,6.871c-1.991,2.939-4.908,8.618-4.908,8.618l-1.846,3.784-3.058,6.852c-2.541,4.631-3.375,6.483-3.375,6.483a8.108,8.108,0,0,0,.37,7.967c1.854,2.036,5.977,6.609,10.395-3.089l3.572-7.244c.654-1.22,1.077-2.075,1.077-2.075L63.444,12.9l-.006-.01.338-.679s1.068-1.917,1.645-2.838c3.46-5.493,8.878-.312,8.878-.312S69.758.015,63.217.016c-2.889,0-6.169,1.766-9.617,6.855" transform="translate(-23.606 -0.01)" fill="#e95524" fill-rule="evenodd"/>
        <path id="Path" d="M40.423,59.35S37.794,64,40.183,68.1a7.908,7.908,0,0,0,5.006,3.331H67.416L72.881,60.32l-20.773-.011s-5.286-.319-6.609-4.384c-1.29-3.964,1.376-9.443,1.4-9.491Z" transform="translate(-23.393 -27.724)" fill="#f69342" fill-rule="evenodd"/>
        <path id="Fill-10" d="M71.091,9.031s5.485-5.165,8.941.328c.58.921,1.646,2.838,1.646,2.838l.338.679-.006.01,7.619,15.271s.423.855,1.078,2.075l3.572,7.244c7.944,17.442,16.482-8.4,16.482-8.4s-4.091,7.718-9.094-2.964l-3.057-6.852-1.848-3.784a93.51,93.51,0,0,0-4.907-8.618C88.294,1.767,84.965,0,82.06,0,75.491,0,71.091,9.031,71.091,9.031" transform="translate(-42.446)" fill="#fffffe" fill-rule="evenodd"/>
      </g>
      <path id="Fill-12" d="M27.272,132.751a.62.62,0,0,0-.614-.619v0H22.575V126.29h0a.68.68,0,0,0-1.361,0h0v7.082h5.448a.622.622,0,0,0,.614-.621" transform="translate(-12.664 -75.003)" fill="#f69342" fill-rule="evenodd"/>
      <path id="Fill-14" d="M39.4,131.021a.672.672,0,0,0-1.344,0v4.512H39.4Zm-.674,5.187a.675.675,0,0,0,.674-.674H38.058a.672.672,0,0,0,.67.674Z" transform="translate(-22.723 -77.827)" fill="#f69342" fill-rule="evenodd"/>
      <path id="Fill-16" d="M50.5,131.155a.666.666,0,0,0-.383-.865.679.679,0,0,0-.867.409l-.162.449-1.34,2.748L46.6,131.131l-.152-.423a.692.692,0,0,0-.885-.418.672.672,0,0,0-.4.84h0l0,0c0,.015.006.027.009.04l.631,1.539a.491.491,0,0,0,.062.127l1.274,2.644h0l.073.2c.111.271.284.463.519.463s.42-.182.54-.469l.081-.212,1.913-3.768Z" transform="translate(-26.945 -77.768)" fill="#f69342" fill-rule="evenodd"/>
      <path id="Fill-18" d="M63.654,131.021a.669.669,0,1,0-1.338,0V135.5h1.34v-4.481Zm-.669,5.156a.67.67,0,0,0,.669-.67H62.316a.668.668,0,0,0,.668.67Z" transform="translate(-37.207 -77.827)" fill="#f69342" fill-rule="evenodd"/>
      <path id="Fill-20" d="M73.166,130.351a2.028,2.028,0,0,0-1.83.909v-.238h0a.67.67,0,1,0-1.34,0v4.511h1.342V132.9a1.207,1.207,0,0,1,1.32-1.334c.8,0,1.252.4,1.252,1.312v2.653h1.344v-3.053a1.918,1.918,0,0,0-2.086-2.132m1.415,5.862a.673.673,0,0,0,.671-.672h-1.34a.67.67,0,0,0,.668.672m-3.917,0a.673.673,0,0,0,.67-.673h-1.34a.672.672,0,0,0,.67.673" transform="translate(-41.791 -77.829)" fill="#f69342" fill-rule="evenodd"/>
      <path id="Fill-22" d="M90.807,133.164a1.644,1.644,0,0,1-1.719,1.611,1.6,1.6,0,0,1-1.665-1.622v-.02a1.583,1.583,0,0,1,1.665-1.609,1.637,1.637,0,0,1,1.719,1.619Zm1.32-2.061a.67.67,0,1,0-1.341,0h0v.288a2.524,2.524,0,0,0-2.052-1,2.64,2.64,0,0,0-2.662,2.751v.021a2.631,2.631,0,0,0,2.662,2.741,2.458,2.458,0,0,0,2.063-1.077v.457a1.637,1.637,0,0,1-1.853,1.8,3.268,3.268,0,0,1-1.556-.33l-.49-.274a.564.564,0,0,0-.55.985l.112.061a4.664,4.664,0,0,0,2.519.644,5.547,5.547,0,0,0,.556-.028,2.961,2.961,0,0,0,1.851-.758,3,3,0,0,0,.743-2.208Z" transform="translate(-51.386 -77.853)" fill="#f69342" fill-rule="evenodd"/>
      <path id="Fill-24" d="M39.379,126.286a.707.707,0,1,1-.7-.7.706.706,0,0,1,.7.7" transform="translate(-22.668 -74.981)" fill="#f69342" fill-rule="evenodd"/>
      <path id="Fill-26" d="M63.627,126.286a.707.707,0,1,1-.706-.7.708.708,0,0,1,.706.7" transform="translate(-37.145 -74.981)" fill="#f69342" fill-rule="evenodd"/>
      <path id="Fill-28" d="M159.855,126.307a.667.667,0,0,0-1.334,0h0v0a.1.1,0,0,0,0,.01h0v6.423h.008a.666.666,0,0,0,1.331,0h0v-6.435Z" transform="translate(-94.646 -75.021)" fill="#fefffe" fill-rule="evenodd"/>
      <path id="Fill-30" d="M166.758,132.045v-.024c0-.336.293-.575.805-.575a3.028,3.028,0,0,1,1.338.387l.158.1a.675.675,0,0,0,.1.043c.007,0,.018,0,.028.008a.536.536,0,0,0,.51-.91.405.405,0,0,0-.081-.064s-.065-.045-.125-.079-.116-.065-.116-.065l0,0-.494.95.02.012-.022-.012.5-.955a3.922,3.922,0,0,0-1.777-.463,1.833,1.833,0,0,0-2.044,1.752v.021c0,1.1.947,1.445,1.8,1.684.672.206,1.279.357,1.279.8v.021c0,.381-.325.621-.89.621a2.887,2.887,0,0,1-1.216-.3,1.926,1.926,0,0,1-.167-.119.521.521,0,0,0-.2-.083.535.535,0,0,0-.415.961c.24.173.226.161.226.161l0-.008.552-.91h0l-.557.92a3.956,3.956,0,0,0,1.734.423c1.2,0,2.129-.6,2.129-1.8v-.022c0-1.035-.944-1.414-1.783-1.673C167.377,132.631,166.758,132.457,166.758,132.045Z" transform="translate(-98.825 -77.858)" fill="#fefffe" fill-rule="evenodd"/>
      <path id="Fill-32" d="M123.54,143.444c.116.289.152.535.55.535s.449-.237.58-.541l.019-.057h-1.171Z" transform="translate(-73.749 -85.608)" fill="#fefffe" fill-rule="evenodd"/>
      <path id="Fill-34" d="M112.767,130.652l-1.907-4.475h0l-.055-.156c-.118-.279-.163-.5-.531-.5s-.4.224-.5.492l-.062.159h0l-1.909,4.475-1.768-4.212-.156-.451a.7.7,0,0,0-1.323.451h0l2.625,6.274h1.175l1.908-4.276,1.909,4.276h1.175l2.627-6.287h-1.43Z" transform="translate(-62.401 -74.945)" fill="#fefffe" fill-rule="evenodd"/>
      <path id="Fill-36" d="M111.144,143.444c.118.289.152.535.55.535s.449-.237.582-.541l.017-.057h-1.17Z" transform="translate(-66.348 -85.608)" fill="#fefffe" fill-rule="evenodd"/>
      <path id="Fill-38" d="M130.42,125.563a.676.676,0,0,0-.858.413l-.154.447h1.434l0,0a.674.674,0,0,0-.424-.856" transform="translate(-77.265 -74.948)" fill="#fefffe" fill-rule="evenodd"/>
      <path id="Fill-40" d="M137.769,134.137c0,.716-.655,1.205-1.521,1.205-.62,0-1.108-.3-1.108-.846v-.025c0-.551.488-.889,1.314-.889a3.721,3.721,0,0,1,1.316.228Zm-1.248-3.9a4.882,4.882,0,0,0-2.089.438l-.263.112a.553.553,0,0,0,.424,1.022l.1-.042v0a3.945,3.945,0,0,1,1.64-.36,1.3,1.3,0,0,1,1.414,1.378v.11a4.822,4.822,0,0,0-1.587-.24c-1.336,0-2.326.608-2.326,1.881v.022a1.836,1.836,0,0,0,2.044,1.771,2.322,2.322,0,0,0,1.859-.826v.093h1.3v-2.788a2.325,2.325,0,0,0-2.519-2.575Z" transform="translate(-79.907 -77.76)" fill="#fefffe" fill-rule="evenodd"/>
      <path id="Fill-42" d="M144.173,144.21a.652.652,0,0,0,.651-.657h-1.3a.654.654,0,0,0,.651.657" transform="translate(-85.693 -85.711)" fill="#fefffe" fill-rule="evenodd"/>
      <path id="Fill-44" d="M151.99,126.307a.669.669,0,0,0-1.338,0v0a.083.083,0,0,0,0,.01h0v6.423h.006a.666.666,0,0,0,1.332,0h0v-6.435Z" transform="translate(-89.948 -75.021)" fill="#fefffe" fill-rule="evenodd"/>
      <path id="Fill-46" d="M182.2,124.424v.631h.477a.316.316,0,1,0,0-.631Zm.308.858H182.2v.7h-.249V124.2h.726a.546.546,0,0,1,.579.543.522.522,0,0,1-.455.528l.477.712h-.308Zm-1.5-.191a1.526,1.526,0,1,0,1.526-1.525,1.525,1.525,0,0,0-1.526,1.525Zm-.271,0a1.8,1.8,0,1,1,1.8,1.8,1.793,1.793,0,0,1-1.8-1.8Z" transform="translate(-107.911 -73.615)" fill="#fefffe" fill-rule="evenodd"/>
    </g>
    <g id="Group_39182" data-name="Group 39182" transform="translate(849.152 208.009)">
      <path id="Path_3208" data-name="Path 3208" d="M217.311,111.139a10.931,10.931,0,0,1-7.1-2.635,10.608,10.608,0,0,1-3.431-5.966,11.529,11.529,0,0,1,2.11-9.756A10.052,10.052,0,0,1,215.124,89a10.993,10.993,0,0,1,7.227.961A10.383,10.383,0,0,1,227.9,97.41a11.794,11.794,0,0,1-.542,6.944,10.825,10.825,0,0,1-10.045,6.785Zm7.386-11.2a14.244,14.244,0,0,0-.124-1.58,7.221,7.221,0,0,0-1.963-4.091,7.282,7.282,0,0,0-12.1,2.494,9.06,9.06,0,0,0-.424,4.71,7.55,7.55,0,0,0,1.727,3.92,7.049,7.049,0,0,0,4.421,2.417,6.908,6.908,0,0,0,6.107-1.91A7.819,7.819,0,0,0,224.7,99.939Z" transform="translate(-206.485 -54.742)" fill="#fff"/>
      <path id="Path_3209" data-name="Path 3209" d="M414.464,99.2c-.772,2.818-1.527,5.541-2.27,8.265-.648,2.37-1.3,4.745-1.928,7.121a.48.48,0,0,1-.578.424c-.955-.029-1.916-.024-2.877-.006a.585.585,0,0,1-.7-.5c-1.032-3.425-2.1-6.838-3.154-10.257-.077-.242-.159-.483-.295-.908-.566,1.827-1.067,3.466-1.574,5.1-.625,2.016-1.262,4.032-1.863,6.054a.576.576,0,0,1-.678.5c-1.026-.029-2.051-.012-3.077-.006-.236,0-.342-.018-.424-.324-1.061-3.955-2.163-7.905-3.254-11.855-.324-1.185-.66-2.364-1.008-3.619,1.132,0,2.234.006,3.342,0,.413,0,.336.371.389.566.342,1.273.643,2.552.949,3.838.6,2.535,1.2,5.07,1.816,7.693a11.615,11.615,0,0,0,.843-2.435c.69-2.158,1.285-4.339,1.916-6.514.265-.908.525-1.822.79-2.735.077-.265.195-.442.542-.424.867.035,1.739.029,2.605,0a.519.519,0,0,1,.59.448q1.662,5.641,3.342,11.283c.024.083.024.177.195.183.513-2,1.037-4.014,1.544-6.036.46-1.822.89-3.649,1.35-5.476.059-.224.153-.419.489-.407C412.471,99.215,413.45,99.2,414.464,99.2Z" transform="translate(-282.145 -59.011)" fill="#fff"/>
      <path id="Path_3210" data-name="Path 3210" d="M273.713,96.517v-8.9c0-.925,0-.925.955-.925.6,0,1.208.035,1.8-.012.56-.047.737.088.737.707-.029,5.665-.018,11.33-.018,16.995,0,1.627-.024,3.254.012,4.881.012.525-.147.637-.631.607-.643-.041-1.291-.012-1.939-.012-.2,0-.4.047-.395-.283.024-.79-.33-1.527-.253-2.476a6.307,6.307,0,0,1-3.278,2.753,6.7,6.7,0,0,1-8.212-3.413,9.2,9.2,0,0,1-1.085-5.176,8.022,8.022,0,0,1,3.885-6.726,6.29,6.29,0,0,1,8.418,1.975Zm.153,5.459a6.179,6.179,0,0,0-1.167-3.537,4.227,4.227,0,0,0-6.237-.542,6.094,6.094,0,0,0-.584,7.451,4.277,4.277,0,0,0,5.806,1.12A5.36,5.36,0,0,0,273.866,101.975Z" transform="translate(-229.021 -53.878)" fill="#fff"/>
      <path id="Path_3211" data-name="Path 3211" d="M363.528,52.716c.89-3.219,1.739-6.319,2.606-9.408.619-2.222,1.261-4.439,1.892-6.661.218-.766.436-1.533.648-2.3.1-.377.218-.66.725-.589a11.177,11.177,0,0,0,1.544.018c-.813,2.747-1.615,5.429-2.405,8.111q-1.68,5.677-3.342,11.353c-.1.354-.218.7-.3,1.061-.236,1.037-.265,1.032-1.35,1.032a2.72,2.72,0,0,0-.536.006c-.454.083-.637-.112-.772-.536-1.45-4.557-2.93-9.113-4.4-13.664-.46-1.415-.926-2.83-1.432-4.392-.354,1-.678,1.875-.967,2.759q-2.025,6.243-4.026,12.5c-.312.967-.631,1.928-.925,2.894-.094.312-.23.5-.59.442a4.062,4.062,0,0,0-.536-.006c-1.208,0-1.214,0-1.533-1.149-.9-3.307-1.928-6.579-2.912-9.862-1.043-3.49-2.063-6.985-3.112-10.546.625,0,1.238.012,1.851-.006.324-.012.342.248.395.43q1.547,5.314,3.065,10.628c.7,2.446,1.368,4.9,2.057,7.351a1.71,1.71,0,0,0,.195.318c1.362-4.227,2.706-8.43,4.062-12.621.607-1.886,1.256-3.761,1.839-5.659.112-.36.253-.442.584-.448,1.527-.041,1.521-.047,2.069,1.633q1.45,4.457,2.906,8.913C361.713,47.075,362.6,49.839,363.528,52.716Z" transform="translate(-262.034 -32.148)" fill="#fff"/>
      <path id="Path_3212" data-name="Path 3212" d="M360.587,106.829c.106-3.325,1.421-5.989,4.486-7.469a7.99,7.99,0,0,1,8.388.654,7.732,7.732,0,0,1,3.2,5.518,8.567,8.567,0,0,1-.737,5.087,7.484,7.484,0,0,1-6.237,4.38,8.134,8.134,0,0,1-5.246-1.067,7.542,7.542,0,0,1-3.584-4.958A8.5,8.5,0,0,1,360.587,106.829Zm12.727.277a5.294,5.294,0,0,0-1.969-4.6,4.416,4.416,0,0,0-6.549,1.374,5.907,5.907,0,0,0-.6,4.3,4.6,4.6,0,0,0,5.789,3.637A4.91,4.91,0,0,0,373.314,107.106Z" transform="translate(-269.745 -58.72)" fill="#fff"/>
      <path id="Path_3213" data-name="Path 3213" d="M307.881,110.493c0,.931-.006,1.816.006,2.7a.533.533,0,0,1-.312.513,10.06,10.06,0,0,1-4.02,1.344,9.266,9.266,0,0,1-5.382-.878,6.98,6.98,0,0,1-3.8-5,9.106,9.106,0,0,1,1.486-7.687,7.254,7.254,0,0,1,4.716-2.8,7.062,7.062,0,0,1,4.2.519,5.935,5.935,0,0,1,2.706,2.352,10.031,10.031,0,0,1,1.332,5.765c-.006.477-.23.613-.7.613-3.366-.018-6.732,0-10.1-.018-.507,0-.607.047-.466.607a5.056,5.056,0,0,0,4.067,3.7A8.227,8.227,0,0,0,307.881,110.493Zm-6.378-4.857h3c1.126,0,1.126,0,.967-1.067a3.642,3.642,0,0,0-3.838-3.2,4.7,4.7,0,0,0-4.185,3.932c-.077.33.136.342.389.342C299.057,105.636,300.283,105.636,301.5,105.636Z" transform="translate(-242.451 -58.759)" fill="#fff"/>
      <path id="Path_3214" data-name="Path 3214" d="M435.942,106.826c0-2.452.012-4.91-.012-7.363-.006-.442.118-.578.554-.542a8.57,8.57,0,0,0,1.6-.006c.5-.059.6.248.654.589.077.43.106.867.141,1.3.012.147.029.289.159.336.147.053.236-.106.307-.206a5.372,5.372,0,0,1,4.946-2.393,5.155,5.155,0,0,1,5.176,4.569,32.017,32.017,0,0,1,.106,4.25c.035,2.275,0,4.551.018,6.826.006.436-.112.566-.548.548-.8-.035-1.6-.041-2.405,0-.454.024-.542-.13-.542-.554.018-3.077.065-6.16-.012-9.237-.053-2.087-.9-2.9-2.582-3.183a3.355,3.355,0,0,0-3.855,2.187,4.729,4.729,0,0,0-.236,1.338c.006,2.947-.012,5.889.018,8.836.006.5-.1.654-.613.625a20.661,20.661,0,0,0-2.34,0c-.442.024-.548-.118-.548-.554C435.953,111.737,435.942,109.284,435.942,106.826Z" transform="translate(-300.675 -58.747)" fill="#fff"/>
      <path id="Path_3215" data-name="Path 3215" d="M325.358,46.552c.383-.731.124-1.48.3-2.175.1-.407.159-.536.584-.531,1.061.018,1.061,0,1.061,1.032,0,4.574.041,9.143-.018,13.717a7.073,7.073,0,0,1-2.328,5.476,7.162,7.162,0,0,1-3.549,1.621,9.646,9.646,0,0,1-5.518-.837,10.424,10.424,0,0,1-1.4-.819c-.177-.106-.171-.289-.165-.472.006-.648,0-1.291,0-2.022.572.419,1.061.861,1.621,1.214a7.5,7.5,0,0,0,4.663,1.173,5.083,5.083,0,0,0,4.569-4.062c.206-1.214.035-2.411.141-3.79a7.408,7.408,0,0,1-3.46,2.7A6.924,6.924,0,0,1,313.38,54.6a9.175,9.175,0,0,1-.654-3.566,7.447,7.447,0,0,1,6.1-7.321A6.6,6.6,0,0,1,325.358,46.552ZM314.724,51.38a5.609,5.609,0,0,0,.4,2.317,5.168,5.168,0,0,0,6.478,3.3,5.516,5.516,0,0,0,3.7-4.551c.613-2.918-1.055-6.384-4.35-6.885A5.039,5.039,0,0,0,316.369,47,5.754,5.754,0,0,0,314.724,51.38Z" transform="translate(-250.096 -36.206)" fill="#fff"/>
      <path id="Path_3216" data-name="Path 3216" d="M340.363,101.76c0-2.812-.024-5.618.018-8.43.012-.625-.183-.713-.737-.707-1.739.035-3.478-.006-5.211.024-.466.006-.678-.065-.637-.6a19.928,19.928,0,0,0,.006-2.14c-.012-.36.071-.5.466-.5q7.817.018,15.639,0c.354,0,.519.053.5.46a22.545,22.545,0,0,0,0,2.275c.024.454-.165.5-.536.5-1.78-.018-3.566.018-5.347-.024-.542-.012-.7.1-.7.678.024,5.577.018,11.147.018,16.724,0,.955,0,.955-.925.955-.625,0-1.25-.035-1.869.012-.536.041-.707-.094-.7-.672C340.381,107.472,340.363,104.619,340.363,101.76Z" transform="translate(-258.746 -55.001)" fill="#fff"/>
      <path id="Path_3217" data-name="Path 3217" d="M406.167,46.7c.365-.772.1-1.627.312-2.435.083-.312.106-.436.46-.442,1.173-.018,1.173-.035,1.173,1.12,0,4.6-.006,9.19.006,13.788,0,.448-.03.672-.589.648-1.114-.047-1.126-.006-1.155-1.238a4.782,4.782,0,0,0-.2-1.674,6.811,6.811,0,0,1-3.372,2.765,6.348,6.348,0,0,1-6.054-.89,7.619,7.619,0,0,1-3.1-5.441,8.824,8.824,0,0,1,.937-5.559,6.759,6.759,0,0,1,5.011-3.661,6.4,6.4,0,0,1,5.571,1.7A8.855,8.855,0,0,1,406.167,46.7ZM395.5,51.494a6.555,6.555,0,0,0,1.9,4.881,5.028,5.028,0,0,0,7.622-.808A6.887,6.887,0,0,0,405.271,48a5,5,0,0,0-6.6-2.04C396.364,47.132,395.58,49.166,395.5,51.494Z" transform="translate(-283.274 -36.184)" fill="#fff"/>
      <path id="Path_3218" data-name="Path 3218" d="M249.382,98.216c0-3.637.012-7.274-.012-10.905-.006-.507.124-.643.619-.613a20.661,20.661,0,0,0,2.34,0c.454-.024.542.136.542.56-.018,3.661-.012,7.316-.012,10.976,0,3.678-.012,7.363.012,11.041.006.507-.124.643-.619.613a20.659,20.659,0,0,0-2.34,0c-.454.024-.542-.136-.542-.56C249.388,105.62,249.382,101.918,249.382,98.216Z" transform="translate(-224.09 -53.885)" fill="#fff"/>
      <path id="Path_3219" data-name="Path 3219" d="M286.932,46.2a5.519,5.519,0,0,1,5.205-2.617,5.042,5.042,0,0,1,5.075,4.468,9.8,9.8,0,0,1,.112,1.309c.006,3.148-.012,6.29.012,9.438.006.477-.13.584-.59.578-1.427-.024-1.427,0-1.427-1.4v-8.5a4.748,4.748,0,0,0-.725-2.529,3.4,3.4,0,0,0-2.735-1.5,4.278,4.278,0,0,0-4.828,4.144c-.006,3.059-.018,6.113.012,9.172.006.507-.124.625-.625.619-1.4-.029-1.4-.006-1.4-1.432,0-4.462.012-8.925-.012-13.387,0-.542.065-.79.7-.743.943.065.973.012,1.037.943A6.46,6.46,0,0,0,286.932,46.2Z" transform="translate(-238.72 -36.18)" fill="#fff"/>
      <path id="Path_3220" data-name="Path 3220" d="M450.235,55.4a6.96,6.96,0,0,0,3.566,2.11,5.436,5.436,0,0,0,4.28-.419,2.211,2.211,0,0,0-.183-3.944,30.321,30.321,0,0,0-4.009-1.432,5.323,5.323,0,0,1-3.107-2.1,3.945,3.945,0,0,1,1.8-5.27,7.673,7.673,0,0,1,7.457.36.631.631,0,0,1,.366.678c-.012.513-.006,1.026-.006,1.615A10.669,10.669,0,0,0,458,45.783a6.335,6.335,0,0,0-3.979-.083,2.166,2.166,0,0,0-1.5,2.93,3.428,3.428,0,0,0,2.069,1.491,39.237,39.237,0,0,1,4.427,1.6,3.477,3.477,0,0,1,2.152,3.672,3.856,3.856,0,0,1-2.558,3.584,8.129,8.129,0,0,1-7.8-.808,1.048,1.048,0,0,1-.59-1.061C450.264,56.6,450.235,56.081,450.235,55.4Z" transform="translate(-306.539 -36.173)" fill="#fff"/>
      <path id="Path_3221" data-name="Path 3221" d="M209.212,44.563c0-3.39.012-6.779-.012-10.169-.006-.489.1-.637.613-.625,1.409.035,1.409.006,1.409,1.421,0,5.865.006,11.731-.012,17.6,0,.548.112.7.678.7,2.853-.035,5.706-.006,8.559-.024.43,0,.56.1.554.542-.018,1.338.006,1.338-1.356,1.338-3.278,0-6.549-.012-9.827.012-.5.006-.619-.118-.619-.619C209.223,51.342,209.212,47.953,209.212,44.563Z" transform="translate(-207.599 -32.159)" fill="#fff"/>
      <path id="Path_3222" data-name="Path 3222" d="M250.961,57.317c.531-1.5,1.02-2.877,1.5-4.25q1.521-4.359,3.024-8.724c.088-.265.153-.4.472-.383.548.035,1.108.012,1.7.012-.672,1.839-1.332,3.637-1.987,5.441q-1.751,4.863-3.484,9.727a.537.537,0,0,1-.725.354c-.6-.147-1.468.448-1.78-.354-1.049-2.706-1.987-5.465-2.977-8.194q-1.176-3.245-2.382-6.49c-.053-.147.029-.318-.159-.424.094-.035.136-.065.165-.059.672.153,1.527-.413,2.01.295a8.691,8.691,0,0,1,.743,1.987c1.179,3.307,2.311,6.626,3.46,9.945C250.672,56.521,250.79,56.845,250.961,57.317Z" transform="translate(-221.955 -36.318)" fill="#fff"/>
      <path id="Path_3223" data-name="Path 3223" d="M429.326,42.628c0,3.661-.012,7.316.012,10.976,0,.483-.094.643-.607.631-1.409-.035-1.409-.006-1.409-1.421q0-10.54-.012-21.08c0-.542.106-.713.678-.7,1.338.047,1.344.012,1.344,1.356Q429.323,37.515,429.326,42.628Z" transform="translate(-297.137 -31.038)" fill="#fff"/>
      <path id="Path_3224" data-name="Path 3224" d="M439.572,42.576c0-3.637.012-7.268-.012-10.905,0-.477.083-.643.607-.631,1.415.035,1.415.006,1.415,1.421q0,10.5.012,21.009c0,.584-.106.8-.743.766-1.279-.059-1.279-.018-1.279-1.285Q439.572,47.76,439.572,42.576Z" transform="translate(-302.165 -31.038)" fill="#fff"/>
      <path id="Path_3225" data-name="Path 3225" d="M234.862,51.723c0-2.364.018-4.728-.012-7.092-.006-.548.159-.654.666-.643,1.356.029,1.356.006,1.356,1.338,0,4.527-.012,9.054.012,13.582.006.542-.159.654-.666.643-1.356-.029-1.356-.006-1.356-1.338Z" transform="translate(-218.129 -36.354)" fill="#fff"/>
      <path id="Path_3226" data-name="Path 3226" d="M272.762,51.771c0-2.411.012-4.816-.012-7.227-.006-.43.094-.56.542-.554,1.474.012,1.474-.006,1.474,1.486,0,4.48-.006,8.966.012,13.446,0,.489-.1.637-.613.625-1.4-.035-1.409-.006-1.409-1.421C272.762,56.009,272.762,53.887,272.762,51.771Z" transform="translate(-233.687 -36.355)" fill="#fff"/>
      <path id="Path_3227" data-name="Path 3227" d="M236.859,34.027a1.332,1.332,0,0,1-1.4,1.3,1.362,1.362,0,0,1-1.267-1.368,1.318,1.318,0,0,1,1.4-1.3A1.371,1.371,0,0,1,236.859,34.027Z" transform="translate(-217.857 -31.703)" fill="#fff"/>
      <path id="Path_3228" data-name="Path 3228" d="M273.412,35.34a1.335,1.335,0,0,1-1.315-1.385,1.3,1.3,0,0,1,1.35-1.285,1.335,1.335,0,0,1-.035,2.67Z" transform="translate(-233.419 -31.708)" fill="#fff"/>
    </g>
  </g>
</svg>
