<?xml version="1.0" encoding="UTF-8"?>
<svg width="198px" height="150px" viewBox="0 0 198 150" version="1.1" xmlns="http://www.w3.org/2000/svg" xmlns:xlink="http://www.w3.org/1999/xlink">
    <title>LivingwallsLogoDark</title>
    <g id="Symbols" stroke="none" stroke-width="1" fill="none" fill-rule="evenodd">
        <g id="LivingwallsLogo" transform="translate(0.000000, 0.000500)">
            <g id="logoMark">
                <path d="M162.177851,0.369816102 L143.470221,51.420799 L140.078266,59.9953051 C139.204339,62.040417 135.770483,69.3569298 135.022258,71.019955 C129.739787,82.7409407 122.709461,80.9282731 122.709461,80.9282731 C122.709461,80.9282731 126.593249,89.1456328 130.702503,96.8462276 C137.093346,109.520934 148.587085,117.45098 163.646368,85.7846658 C168.311304,75.969126 175.643912,57.3915284 175.643912,57.3915284 L183.372582,36.628155 L197.064109,0.369816102 L162.177851,0.369816102 Z" id="Fill-1" fill="#A5A5A5"/>
                <path d="M0,0.369816102 L13.6865386,36.628155 L21.4221914,57.3915284 C21.4221914,57.3915284 28.749812,75.969126 33.4177407,85.7846658 C48.4820116,117.45098 59.9697653,109.520934 66.3645982,96.8462276 C70.4658709,89.1456328 74.3596358,80.9282731 74.3596358,80.9282731 C74.3596358,80.9282731 67.3293101,82.7409407 62.0408531,71.019955 C61.2936254,69.3569298 57.8607674,62.040417 56.9868401,59.9953051 L53.5988756,51.420799 L34.8862577,0.369816102 L0,0.369816102 Z" id="Fill-4" fill="#A5A5A5"/>
                <path d="M74.439646,17.0292982 C69.4983656,24.3238635 62.2585368,38.417179 62.2585368,38.417179 L57.6764046,47.8087322 L50.087404,64.8140877 C43.7813605,76.307617 41.7102727,80.9026344 41.7102727,80.9026344 C41.7102727,80.9026344 36.2542132,90.4079158 42.6280958,100.675376 C47.2281854,105.727301 57.4619133,117.078171 68.4259092,93.0086997 L77.2918812,75.030669 C78.9150314,72.0029057 79.9655398,69.8799797 79.9655398,69.8799797 L98.8716987,31.9795656 L98.8567342,31.9536276 L99.6967419,30.2696524 C99.6967419,30.2696524 102.347455,25.5120236 103.780057,23.2264863 C112.366692,9.59506681 125.814796,22.4533342 125.814796,22.4533342 C125.814796,22.4533342 114.541533,0.0129690028 98.3080356,0.0159618495 C91.1380412,0.0179570807 82.9983467,4.39848716 74.439646,17.0292982" id="Fill-6" fill="#E95524"/>
                <path d="M42.265855,78.4904996 C42.265855,78.4904996 35.7393344,90.0428883 41.6692699,100.214577 C45.6218952,106.992377 54.0928041,108.48082 54.0928041,108.48082 L109.256967,108.48082 L122.820797,80.8967485 L71.2670706,80.8688152 C71.2670706,80.8688152 58.147188,80.0777061 54.8639751,69.9888195 C51.6625681,60.1503345 58.2788757,46.5518363 58.3387337,46.4331201 L42.265855,78.4904996 Z" id="Path" fill="#F69342"/>
                <path d="M71.0911878,22.412432 C71.0911878,22.412432 84.7029039,9.59506681 93.2815573,23.2264863 C94.7221405,25.5120236 97.3668678,30.2696524 97.3668678,30.2696524 L98.2048803,31.9536276 L98.1899157,31.9795656 L117.099068,69.8799797 C117.099068,69.8799797 118.148578,72.0029057 119.774721,75.030669 L128.638698,93.0086997 C148.354936,136.297236 169.544678,72.1705051 169.544678,72.1705051 C169.544678,72.1705051 159.390761,91.3257222 146.976206,64.8140877 L139.390198,47.8087322 L134.803078,38.417179 C134.803078,38.417179 127.66401,24.2460495 122.623964,17.0292982 C113.785926,4.38551816 105.522524,0.00299284679 98.3136223,0 C82.0102902,0 71.0911878,22.412432 71.0911878,22.412432" id="Fill-10" fill="#D8D8D8"/>
            </g>
            <path d="M36.2549,143.3204 C36.2549,142.4804 35.5709,141.7914 34.7309,141.7854 L34.7309,141.7754 L24.5969,141.7754 L24.5969,127.2844 L24.5919,127.2844 C24.5819,126.3624 23.8269,125.6184 22.9019,125.6184 C21.9739,125.6184 21.2299,126.3624 21.2149,127.2844 L21.2099,127.2844 L21.2099,144.8604 L34.7309,144.8604 C35.5709,144.8544 36.2549,144.1604 36.2549,143.3204" id="Fill-12" fill="#F69342"/>
            <path d="M41.3931,132.0162 C41.3881,131.0962 40.6391,130.3492 39.7211,130.3492 C38.8011,130.3492 38.0581,131.0992 38.0581,132.0162 L38.0581,143.2132 L41.3931,143.2132 L41.3931,132.0162 Z M39.7211,144.8902 C40.6391,144.8902 41.3931,144.1412 41.3931,143.2182 L38.0581,143.2182 C38.0581,144.1412 38.8011,144.8902 39.7211,144.8902 L39.7211,144.8902 Z" id="Fill-14" fill="#F69342"/>
            <path d="M58.4527,132.4972 C58.7617,131.6212 58.3677,130.6602 57.5017,130.3512 C56.6257,130.0382 55.6637,130.4942 55.3497,131.3672 L54.9487,132.4822 L51.6227,139.3012 L48.7747,132.4372 L48.3987,131.3882 C48.0797,130.4992 47.0977,130.0272 46.2017,130.3512 C45.3457,130.6602 44.9517,131.5722 45.2057,132.4372 L45.1957,132.4372 L45.2057,132.4452 C45.2107,132.4822 45.2217,132.5132 45.2287,132.5442 L46.7947,136.3642 C46.8307,136.4762 46.8797,136.5772 46.9477,136.6782 L50.1097,143.2402 L50.1197,143.2402 L50.3017,143.7412 C50.5767,144.4142 51.0067,144.8892 51.5897,144.8892 C52.1597,144.8892 52.6317,144.4382 52.9297,143.7252 L53.1317,143.1992 L57.8797,133.8482 L58.4527,132.4972 Z" id="Fill-16" fill="#F69342"/>
            <path d="M65.6358,132.0162 C65.6308,131.0962 64.8918,130.3492 63.9748,130.3492 C63.0538,130.3492 62.3158,131.0992 62.3158,132.0162 L62.3158,143.1382 L65.6408,143.1382 L65.6408,132.0162 L65.6358,132.0162 Z M63.9748,144.8122 C64.8918,144.8122 65.6358,144.0682 65.6358,143.1482 L62.3158,143.1482 C62.3158,144.0682 63.0538,144.8122 63.9748,144.8122 L63.9748,144.8122 Z" id="Fill-18" fill="#F69342"/>
            <path d="M77.8662,130.3512 C75.6142,130.3512 74.2562,131.2372 73.3252,132.6082 L73.3252,132.0182 L73.3202,132.0182 C73.3152,131.0952 72.5712,130.3512 71.6562,130.3512 C70.7432,130.3512 69.9942,131.0952 69.9942,132.0182 L69.9942,143.2142 L73.3252,143.2142 L73.3252,136.6882 C73.3252,134.4312 74.6732,133.3782 76.6012,133.3782 C78.5792,133.3782 79.7092,134.3712 79.7092,136.6342 L79.7092,143.2192 L83.0442,143.2192 L83.0442,135.6412 C83.0442,132.2532 81.1422,130.3512 77.8662,130.3512 M81.3782,144.8992 C82.2962,144.8992 83.0442,144.1502 83.0442,143.2302 L79.7192,143.2302 C79.7192,144.1502 80.4582,144.8992 81.3782,144.8992 M71.6562,144.8892 C72.5712,144.8892 73.3202,144.1402 73.3202,143.2192 L69.9942,143.2192 C69.9942,144.1402 70.7392,144.8892 71.6562,144.8892" id="Fill-20" fill="#F69342"/>
            <path d="M97.8365,137.2711 C97.8365,139.6141 95.8815,141.2701 93.5705,141.2701 C91.2865,141.2701 89.4395,139.6451 89.4395,137.2451 L89.4395,137.1961 C89.4395,134.8011 91.2555,133.2021 93.5705,133.2021 C95.8815,133.2021 97.8365,134.8221 97.8365,137.2191 L97.8365,137.2711 Z M101.1125,132.1571 C101.1075,131.2371 100.3635,130.4931 99.4455,130.4931 C98.5305,130.4931 97.7845,131.2371 97.7845,132.1571 L97.7815,132.1571 L97.7815,132.8731 C96.6515,131.5201 95.1385,130.3921 92.6895,130.3921 C89.3015,130.3921 86.0825,132.9221 86.0825,137.2191 L86.0825,137.2711 C86.0825,141.5421 89.2705,144.0741 92.6895,144.0741 C95.0845,144.0741 96.5945,142.9701 97.8105,141.4021 L97.8105,142.5351 C97.8105,145.4511 96.1855,146.9901 93.2105,146.9901 C91.6755,146.9901 90.5865,146.7721 89.3485,146.1711 L88.1325,145.4921 C87.4635,145.1221 86.6185,145.3651 86.2435,146.0441 C85.8645,146.7181 86.1035,147.5631 86.7665,147.9371 L87.0445,148.0891 C88.9225,149.2171 90.8955,149.6881 93.2955,149.6881 C93.7775,149.6881 94.2415,149.6631 94.6765,149.6191 C96.6365,149.4191 98.1965,148.8131 99.2695,147.7391 C100.4805,146.5291 101.1125,144.7071 101.1125,142.2581 L101.1125,132.1571 Z" id="Fill-22" fill="#F69342"/>
            <path d="M41.4741,127.3287 C41.4741,128.2957 40.6941,129.0857 39.7271,129.0857 C38.7551,129.0857 37.9651,128.2957 37.9651,127.3287 C37.9651,126.3617 38.7551,125.5817 39.7271,125.5817 C40.6941,125.5817 41.4741,126.3617 41.4741,127.3287" id="Fill-24" fill="#F69342"/>
            <path d="M65.7217,127.3287 C65.7217,128.2957 64.9367,129.0857 63.9697,129.0857 C62.9977,129.0857 62.2127,128.2957 62.2127,127.3287 C62.2127,126.3617 62.9977,125.5817 63.9697,125.5817 C64.9367,125.5817 65.7217,126.3617 65.7217,127.3287" id="Fill-26" fill="#F69342"/>
            <path d="M161.8374,127.2833 C161.8164,126.3763 161.0934,125.6483 160.1814,125.6483 C159.2814,125.6483 158.5454,126.3763 158.5274,127.2833 L158.5224,127.2833 L158.5224,127.2883 C158.5224,127.2883 158.5174,127.3093 158.5174,127.3143 L158.5224,127.3143 L158.5224,143.2543 L158.5434,143.2543 C158.5614,144.1613 159.2874,144.8893 160.1914,144.8893 C161.0984,144.8893 161.8274,144.1613 161.8474,143.2543 L161.8534,143.2543 L161.8534,127.2833 L161.8374,127.2833 Z" id="Fill-28" fill="#D8D8D8"/>
            <path d="M168.5967,134.4802 L168.5967,134.4202 C168.5967,133.5862 169.3247,132.9932 170.5947,132.9932 C171.5817,132.9932 172.7557,133.3482 173.9147,133.9542 L174.3057,134.1982 C174.3867,134.2392 174.4717,134.2782 174.5547,134.3042 C174.5727,134.3142 174.5987,134.3142 174.6247,134.3252 C175.1867,134.4852 175.8047,134.2632 176.1277,133.7312 C176.4567,133.1772 176.3457,132.4762 175.8897,132.0672 C175.8297,132.0052 175.7577,131.9512 175.6877,131.9092 C175.6877,131.9092 175.5267,131.7982 175.3787,131.7122 C175.2367,131.6262 175.0917,131.5512 175.0917,131.5512 L175.0857,131.5622 L173.8607,133.9202 L173.9097,133.9492 L173.8547,133.9202 L175.0857,131.5512 C173.7277,130.8362 172.1497,130.4012 170.6747,130.4012 C167.8467,130.4012 165.6027,132.0522 165.6027,134.7502 L165.6027,134.8022 C165.6027,137.5232 167.9537,138.3892 170.0577,138.9822 C171.7247,139.4932 173.2327,139.8692 173.2327,140.9762 L173.2327,141.0272 C173.2327,141.9732 172.4267,142.5672 171.0247,142.5672 C170.0837,142.5672 169.0417,142.3132 168.0077,141.8232 C167.9767,141.8082 167.8467,141.7192 167.5937,141.5272 C167.4717,141.4362 167.2747,141.3512 167.1087,141.3202 C166.6057,141.2192 166.0697,141.4112 165.7557,141.8622 C165.3407,142.4662 165.4777,143.2792 166.0797,143.7052 C166.6757,144.1352 166.6417,144.1042 166.6417,144.1042 L166.6467,144.0852 L168.0177,141.8262 L168.0237,141.8262 L166.6417,144.1092 C168.0287,144.7982 169.5367,145.1592 170.9447,145.1592 C173.9147,145.1592 176.2287,143.6732 176.2287,140.6832 L176.2287,140.6282 C176.2287,138.0592 173.8867,137.1192 171.8047,136.4762 C170.1337,135.9342 168.5967,135.5042 168.5967,134.4802 Z" id="Fill-30" fill="#D8D8D8"/>
            <path d="M123.5723,143.5382 C123.8603,144.2562 123.9503,144.8652 124.9383,144.8652 C125.9313,144.8652 126.0523,144.2772 126.3773,143.5222 L126.4233,143.3802 L123.5183,143.3802 L123.5723,143.5382 Z" id="Fill-32" fill="#D8D8D8"/>
            <path d="M125,138.2531 L120.268,127.1471 L120.257,127.1471 L120.12,126.7611 C119.827,126.0691 119.715,125.5321 118.803,125.5321 C117.904,125.5321 117.821,126.0891 117.559,126.7531 L117.406,127.1471 L117.401,127.1471 L112.663,138.2531 L108.275,127.8001 L107.889,126.6811 C107.575,125.7841 106.593,125.3041 105.688,125.6181 C104.781,125.9261 104.296,126.9091 104.605,127.8001 L104.61,127.8001 L111.124,143.3721 L114.039,143.3721 L118.774,132.7611 L123.512,143.3721 L126.428,143.3721 L132.947,127.7691 L129.398,127.7691 L125,138.2531 Z" id="Fill-34" fill="#D8D8D8"/>
            <path d="M111.1753,143.5382 C111.4683,144.2562 111.5533,144.8652 112.5413,144.8652 C113.5333,144.8652 113.6553,144.2772 113.9853,143.5222 L114.0263,143.3802 L111.1233,143.3802 L111.1753,143.5382 Z" id="Fill-36" fill="#D8D8D8"/>
            <path d="M131.9199,125.6178 C131.0489,125.3198 130.0869,125.7758 129.7899,126.6438 L129.4079,127.7538 L132.9669,127.7538 L132.9719,127.7428 C133.2709,126.8718 132.8059,125.9208 131.9199,125.6178" id="Fill-38" fill="#D8D8D8"/>
            <path d="M143.6035,139.9186 C143.6035,141.6966 141.9785,142.9096 139.8275,142.9096 C138.2875,142.9096 137.0775,142.1556 137.0775,140.8106 L137.0775,140.7486 C137.0775,139.3816 138.2875,138.5426 140.3375,138.5426 C141.6045,138.5426 142.7635,138.7806 143.6035,139.1096 L143.6035,139.9186 Z M140.5065,130.2356 C138.3035,130.2356 136.8055,130.6816 135.3225,131.3236 L134.6695,131.6016 C133.9745,131.8896 133.6455,132.6946 133.9385,133.3976 C134.2335,134.0976 135.0325,134.4316 135.7215,134.1386 L135.9705,134.0356 L135.9705,134.0456 C137.2665,133.4986 138.4505,133.1516 140.0395,133.1516 C142.3075,133.1516 143.5485,134.6026 143.5485,136.5726 L143.5485,136.8446 C142.4395,136.4926 141.3355,136.2486 139.6095,136.2486 C136.2945,136.2486 133.8375,137.7566 133.8375,140.9166 L133.8375,140.9706 C133.8375,143.8326 136.2115,145.3666 138.9095,145.3666 C141.0655,145.3666 142.5515,144.4756 143.5225,143.3166 L143.5225,143.5466 L146.7575,143.5466 L146.7575,136.6266 C146.7575,132.8276 144.7025,130.2356 140.5065,130.2356 L140.5065,130.2356 Z" id="Fill-40" fill="#D8D8D8"/>
            <path d="M145.1372,145.1832 C146.0342,145.1832 146.7522,144.4542 146.7522,143.5532 L143.5222,143.5532 C143.5222,144.4542 144.2452,145.1832 145.1372,145.1832" id="Fill-42" fill="#D8D8D8"/>
            <path d="M153.9761,127.2833 C153.9501,126.3763 153.2221,125.6483 152.3141,125.6483 C151.4101,125.6483 150.6761,126.3763 150.6561,127.2833 L150.6561,127.2883 C150.6561,127.2883 150.6501,127.3093 150.6501,127.3143 L150.6561,127.3143 L150.6561,143.2543 L150.6711,143.2543 C150.6891,144.1613 151.4201,144.8893 152.3251,144.8893 C153.2271,144.8893 153.9601,144.1613 153.9761,143.2543 L153.9861,143.2543 L153.9861,127.2833 L153.9761,127.2833 Z" id="Fill-44" fill="#D8D8D8"/>
            <path d="M184.3652,126.0983 L184.3652,127.6643 L185.5492,127.6643 C185.9682,127.6643 186.3502,127.3543 186.3502,126.8993 C186.3502,126.4083 185.9682,126.0983 185.5492,126.0983 L184.3652,126.0983 Z M185.1302,128.2283 L184.3652,128.2283 L184.3652,129.9763 L183.7462,129.9763 L183.7462,125.5523 L185.5492,125.5523 C186.3312,125.5523 186.9872,126.0803 186.9872,126.8993 C186.9872,127.8823 186.1132,128.2103 185.8582,128.2103 L187.0422,129.9763 L186.2772,129.9763 L185.1302,128.2283 Z M181.4072,127.7533 C181.4072,129.8363 183.0902,131.5403 185.1942,131.5403 C187.2772,131.5403 188.9812,129.8363 188.9812,127.7533 C188.9812,125.6503 187.2772,123.9673 185.1942,123.9673 C183.0902,123.9673 181.4072,125.6503 181.4072,127.7533 L181.4072,127.7533 Z M180.7342,127.7533 C180.7342,125.2713 182.7332,123.2933 185.1942,123.2933 C187.6772,123.2933 189.6542,125.2713 189.6542,127.7533 C189.6542,130.2153 187.6772,132.2133 185.1942,132.2133 C182.7332,132.2133 180.7342,130.2153 180.7342,127.7533 L180.7342,127.7533 Z" id="Fill-46" fill="#D8D8D8"/>
        </g>
    </g>
</svg>